<?xml version="1.0" standalone="no"?>
<!DOCTYPE svg PUBLIC "-//W3C//DTD SVG 20010904//EN"
 "http://www.w3.org/TR/2001/REC-SVG-20010904/DTD/svg10.dtd">
<svg version="1.0" xmlns="http://www.w3.org/2000/svg"
 width="260.000000pt" height="260.000000pt" viewBox="0 0 260.000000 260.000000"
 preserveAspectRatio="xMidYMid meet">
<metadata>
Created by potrace 1.11, written by Peter Selinger 2001-2013
</metadata>
<g transform="translate(0.000000,260.000000) scale(0.100000,-0.100000)"
fill="#000000" stroke="none">
<path d="M130 1383 l0 -1178 1138 -78 c625 -43 1152 -80 1170 -83 l32 -5 0
1178 0 1178 -1137 78 c-626 43 -1153 81 -1170 84 l-33 5 0 -1179z m1423 822
c84 -18 157 -56 217 -115 44 -43 110 -134 110 -152 0 -10 -45 -31 -209 -98
l-124 -51 -43 49 c-81 93 -201 116 -369 73 -214 -56 -313 -156 -281 -281 24
-92 54 -119 156 -146 65 -17 221 -16 506 3 179 11 370 -27 466 -93 76 -53 147
-166 173 -276 75 -319 -130 -562 -585 -693 -126 -36 -303 -65 -399 -65 -164 0
-323 61 -425 164 -67 67 -106 130 -91 145 13 12 305 141 319 141 6 -1 25 -20
43 -44 68 -93 206 -132 364 -102 339 64 497 220 399 395 -28 48 -71 77 -150
97 -56 14 -94 15 -280 8 -404 -15 -525 -4 -642 58 -106 56 -170 147 -209 294
-65 251 80 465 402 593 233 92 492 130 652 96z"/>
</g>
</svg>
